:SAMPLES-PER-SECOND 30
:FULLY-SPECIFIED
:DEGREES
11
root  35.08911433 36.51017016 -14.91068742 9.767620087 1.036772132 3.048743248
lowerback  -8.480839729 0.528192997 2.067889929
upperback  -3.912440062 0.230685994 -2.309969902
thorax  0.7246950269 -0.07990337163 -3.533349991
lowerneck  -16.99580002 1.855280042 1.275480032
upperneck  15.27369976 1.352010012 3.772330046
head  7.484109879 1.030400038 1.17809999
lclavicle  0 -4.497500157e-015 -2.743230041e-014
lhumerus  -43.79320145 24.93600082 71.99320221
lradius  -0.03997667879 -6.507048965e-006 28.05430031
lwrist  4.824992743e-007 -3.790274832e-007 -29.83900261
lhand  -0 -36.87680054 -10.73750019
lfingers  90 7.125020027 -90
lthumb  94.81847051 -25.57306642 101.0499305
rclavicle  0 -4.497500157e-015 -2.743230041e-014
rhumerus  -48.78929901 -28.44669914 -64.54560089
rradius  -5.16745672e-007 2.214343908e-008 42.21689987
rwrist  1.380293725e-006 2.528095422e-007 -149.0090027
rhand  -1.767009207e-031 -2.318650007 -7.938169956
rfingers  -90 -7.125020027 -90
rthumb  -86.62369797 -7.761900863 -66.40318798
rfemur  -13.43759155 14.95040703 13.4709425
rtibia  -1.172819018 0.8698014021 21.79327202
rfoot  -0.9641557336 -18.77326012 -40.000103
rtoes  4.11669455 19.58873541 -102.1161566
lfemur  -11.19625854 -17.28423119 -18.28174019
ltibia  1.17295301 1.070434213 16.74649811
lfoot  0.5438075662 -28.61210632 33.85305023
ltoes  -8.772973146 -18.04440058 -116.483346
12
root  35.08870583 36.51197539 -14.90716258 9.77648735 1.058237433 3.056683779
lowerback  -8.485779762 0.525668025 2.05982995
upperback  -3.907968998 0.2284190059 -2.309420109
thorax  0.7327920198 -0.07885103673 -3.528439999
lowerneck  -16.98600006 1.850430012 1.335180044
upperneck  15.21990013 1.350589991 3.690639973
head  7.465750217 1.025699973 1.140730023
lclavicle  0 -4.497500157e-015 -2.743230041e-014
lhumerus  -43.76959991 24.9144001 72.01100159
lradius  -0.04078260809 -6.507048965e-006 28.05900002
lwrist  4.824992743e-007 -3.790274832e-007 -29.81299973
lhand  -4.417273986e-031 -36.92810059 -10.69699955
lfingers  90 7.125020027 -90
lthumb  94.83392766 -25.53141127 101.1011154
rclavicle  0 -4.497500157e-015 -2.743230041e-014
rhumerus  -48.23609924 -27.52289963 -65.39330292
rradius  -5.16745672e-007 2.214343908e-008 43.16609955
rwrist  1.380293725e-006 2.528095422e-007 -149.7890015
rhand  -1.767134617e-031 -2.416990042 -7.878280163
rfingers  -90 -7.125020027 -90
rthumb  -86.61721341 -7.811462199 -66.49557865
rfemur  -13.44680882 14.93863583 13.46937847
rtibia  -1.174519539 0.8853916526 21.81209564
rfoot  -0.9640471339 -18.74696922 -39.98586655
rtoes  4.115381154 19.589001 -102.1122392
lfemur  -11.16884232 -17.29242325 -18.30379868
ltibia  1.200940967 1.067263484 16.69399071
lfoot  0.5325687528 -28.5727272 33.83773422
ltoes  -8.711323146 -18.07347582 -116.2844721
13
root  35.08810809 36.51303269 -14.90344851 9.794757843 1.084203601 3.067491531
lowerback  -8.482269287 0.5433109999 2.118499517
upperback  -3.904445171 0.248081997 -2.341279984
thorax  0.7368670106 -0.07763405889 -3.59307003
lowerneck  -16.97400093 1.831619978 1.35453999
upperneck  15.16119957 1.326699972 3.675669909
head  7.444980145 1.013730049 1.129220009
lclavicle  0 -4.497500157e-015 -2.743230041e-014
lhumerus  -43.72740173 24.78639984 72.08409882
lradius  -0.04158648103 -6.507048965e-006 28.13570023
lwrist  4.824992743e-007 -3.790274832e-007 -29.53050041
lhand  -4.420116695e-031 -36.97710037 -10.6882
lfingers  90 7.125020027 -90
lthumb  94.85499689 -25.52104711 101.1526354
rclavicle  0 -4.497500157e-015 -2.743230041e-014
rhumerus  -47.770401 -26.83519936 -66.11399841
rradius  -5.16745672e-007 2.214343908e-008 44.02330017
rwrist  1.380293725e-006 2.528095422e-007 -150.7449951
rhand  -1.767201528e-031 -2.46784997 -7.832709789
rfingers  -90 -7.125020027 -90
rthumb  -86.60806753 -7.850481319 -66.54259248
rfemur  -13.45423031 14.9010849 13.460042
rtibia  -1.174040675 0.871819973 21.81289673
rfoot  -0.9763610959 -18.76656914 -39.99606323
rtoes  4.089607868 19.59419483 -102.0353759
lfemur  -11.1583395 -17.26124001 -18.32378769
ltibia  1.231732249 1.083795667 16.64974022
lfoot  0.5223730206 -28.58017921 33.77886963
ltoes  -8.664161074 -18.09554429 -116.132542
14
root  35.08769659 36.51248301 -14.89987861 9.793679237 1.106617808 3.068563223
lowerback  -8.487780571 0.5250989795 2.074570179
upperback  -3.903316736 0.2268249989 -2.318759918
thorax  0.7361800075 -0.07628509402 -3.54666996
lowerneck  -16.89299965 1.830199957 1.356130004
upperneck  14.99779987 1.345129967 3.631759882
head  7.37721014 1.017570019 1.113950014
lclavicle  0 -4.497500157e-015 -2.743230041e-014
lhumerus  -43.70970154 24.8572998 72.08630371
lradius  -0.04238829017 -6.507048965e-006 28.12740135
lwrist  4.824992743e-007 -3.790274832e-007 -29.48579979
lhand  -4.417297195e-031 -36.92850113 -10.7020998
lfingers  90 7.125020027 -90
lthumb  94.83520666 -25.53638232 101.1020268
rclavicle  0 -4.497500157e-015 -2.743230041e-014
rhumerus  -47.22460175 -26.22780037 -66.73490143
rradius  -5.16745672e-007 2.214343908e-008 44.90779877
rwrist  1.380293725e-006 2.528095422e-007 -151.3300018
rhand  -1.767294701e-031 -2.5369699 -7.936399937
rfingers  -90 -7.125020027 -90
rthumb  -86.66210853 -7.751509935 -66.61550028
rfemur  -13.42151833 14.85558414 13.46459866
rtibia  -1.167713165 0.8485792875 21.77335358
rfoot  -0.960044682 -18.79984093 -39.97880936
rtoes  4.110411721 19.5900051 -102.0974174
lfemur  -11.19244099 -17.27080154 -18.31861305
ltibia  1.217823029 1.059474826 16.70762062
lfoot  0.5102677345 -28.56038475 33.71076965
ltoes  -8.671041421 -18.09233415 -116.1546955
